<?xml version="1.0" encoding="UTF-8"?><svg id="a" xmlns="http://www.w3.org/2000/svg" width="276" height="276" viewBox="0 0 276 276"><path d="m64.91,209.04h0c-16.36,14.78-30.89,28.71-43.57,41.81,4.82-4.22,9.62-8.64,14.41-13.25,4.79-4.61,9.57-9.42,14.33-14.43l14.83-14.13" fill="#abc1ce"/><path d="m21.29,250.9l-.05.05-1.03,1.05c.15-.14.32-.31.53-.52.31-.32.5-.51.56-.58Z" fill="#abc1ce"/><path d="m23.14,247.8c1.81-4.78,4.15-10.86,6.77-17.16,9.85-23.76,14.96-30.82,17.15-32.91,3.27-3.15,7.28-5.24,11.61-6.05l1.5-.28,17.03-16.58,19.56,23.48-15.84,14.6-.35,1.52c-.97,4.3-3.22,8.23-6.48,11.39-2.18,2.09-9.43,6.94-33.53,15.87-6.4,2.37-12.57,4.5-17.4,6.12Z" fill="#ffce54"/><path d="m77.59,167.42l-19.84,19.31c-5.09.95-10.05,3.41-14.18,7.38-10.54,10.14-28.73,61.68-28.73,61.68,0,0,52.19-16.21,62.74-26.36,4.11-3.96,6.76-8.84,7.9-13.89l18.2-16.78-26.09-31.33Zm1.07,40.71l-2.3,2.13-.69,3.05c-.76,3.33-2.52,6.4-5.07,8.86-.84.81-6.35,5.35-31.75,14.77-2.43.89-4.81,1.75-7.1,2.56.9-2.26,1.85-4.6,2.84-6.98,10.38-25.03,15.12-30.36,15.98-31.17,2.56-2.47,5.69-4.1,9.04-4.72l2.99-.56,2.18-2.12,12.03-11.72,13.01,15.62-11.16,10.29Z" fill="#f6bb42"/><path d="m110.1,216.49c2.85-1.27,5.69-2.62,8.53-4.03l58.21-39.92c2.39-2.15,4.75-4.35,7.08-6.58,1.34-1.3,2.68-2.61,3.99-3.93-.72,26.16-13.26,54.56-36.47,76.9-7.74,7.44-16.09,13.67-24.76,18.67-.06.04-.4.23-.4.23-1.92,1-4.36.66-5.94-.98-.52-.55-.89-1.18-1.12-1.85,0,0-.17-.53-.21-.76l-9.66-37.43c.25-.11.49-.22.75-.33Z" fill="#ff000a"/><path d="m116.17,87.47c-1.37,1.27-2.72,2.56-4.08,3.85-2.32,2.24-4.61,4.51-6.84,6.82-10.08,1.23-42.13,56.65-42.13,56.65-1.52,2.78-2.97,5.57-4.36,8.37-.12.24-.23.48-.35.72l-37.04-11.08c-.22-.05-.75-.24-.75-.24-.66-.25-1.27-.64-1.81-1.19-1.58-1.64-1.81-4.08-.74-5.97,0,0,.2-.33.24-.39,5.32-8.48,11.86-16.59,19.59-24.03,23.23-22.36,52.08-33.8,78.25-33.52Z" fill="#ff000a"/><path d="m111.19,87.74c-29.1,28.01-50.31,60.24-62.39,91.62-.64,1.76-.29,3.79,1.1,5.23l38.44,39.95c1.39,1.43,3.41,1.86,5.19,1.29,31.83-10.87,64.83-30.83,93.93-58.84,45.22-43.51,71.14-96.55,73.87-142.16.09-1.36-.37-2.87-1.39-3.93-1.03-1.06-2.51-1.58-3.89-1.54-45.67.99-99.66,24.88-144.86,68.39Z" fill="#fff" stroke="#000" stroke-miterlimit="10" stroke-width="2"/><path d="m167.4,129.7c-5.38-.1-10.39-2.3-14.11-6.16-3.72-3.88-5.72-8.97-5.62-14.34.1-5.38,2.3-10.39,6.17-14.12,3.87-3.72,8.97-5.72,14.34-5.62,5.38.1,10.39,2.3,14.13,6.16,7.69,8,7.45,20.77-.54,28.46-3.88,3.72-8.97,5.72-14.34,5.62h-.01Z" fill="#434a54"/><path d="m123.9,171.57c-5.38-.1-10.39-2.29-14.11-6.16-3.72-3.87-5.72-8.97-5.62-14.34.1-5.38,2.3-10.39,6.17-14.13,3.87-3.72,8.96-5.72,14.34-5.62,5.38.1,10.39,2.3,14.13,6.16,7.69,8,7.45,20.77-.54,28.46-3.88,3.73-8.97,5.72-14.35,5.62h0s0,0,0,0Z" fill="#434a54"/><path d="m185.92,92.14c-4.67-4.84-10.94-7.58-17.66-7.71-6.71-.13-13.08,2.37-17.92,7.03-4.83,4.66-7.58,10.93-7.71,17.64-.13,6.72,2.38,13.08,7.03,17.93,4.67,4.84,10.94,7.57,17.64,7.7,6.72.13,13.09-2.36,17.94-7.02,9.99-9.62,10.3-25.58.68-35.57Zm-7.66,28.32c-3.01,2.89-6.89,4.29-10.76,4.22-3.85-.07-7.7-1.62-10.58-4.63-5.78-6.01-5.6-15.56.41-21.34,3-2.89,6.89-4.29,10.75-4.21,3.87.07,7.7,1.62,10.59,4.62,5.78,6.01,5.6,15.56-.41,21.34Z" fill="#40beae"/><path d="m124.77,126.3c-6.72-.13-13.08,2.37-17.92,7.02-4.85,4.66-7.58,10.93-7.71,17.65-.13,6.71,2.37,13.08,7.03,17.92,4.67,4.84,10.92,7.58,17.64,7.71,6.72.13,13.09-2.37,17.94-7.03,9.99-9.62,10.3-25.58.68-35.57-4.67-4.84-10.94-7.57-17.66-7.7Zm10,36.02c-3.01,2.9-6.89,4.29-10.76,4.22-3.85-.07-7.7-1.62-10.58-4.63-5.78-6.01-5.6-15.56.41-21.34,3-2.89,6.89-4.29,10.75-4.21,3.87.07,7.7,1.62,10.59,4.62,5.78,6.01,5.6,15.56-.41,21.34Z" fill="#40beae"/><path d="m244.62,87.81l-52.14-54.16c21.83-9,43.51-13.86,63.57-14.29,1.37-.03,2.86.48,3.89,1.54,1.01,1.06,1.47,2.57,1.39,3.93-1.2,20.04-6.88,41.51-16.7,62.99Z" fill="#ff000a"/></svg>